<?xml version="1.0" encoding="UTF-8" standalone="no"?>
<!DOCTYPE svg PUBLIC "-//W3C//DTD SVG 1.1//EN" "http://www.w3.org/Graphics/SVG/1.1/DTD/svg11.dtd">
<svg width="100%" height="100%" viewBox="0 0 64 64" version="1.1" xmlns="http://www.w3.org/2000/svg" xmlns:xlink="http://www.w3.org/1999/xlink" xml:space="preserve" xmlns:serif="http://www.serif.com/" style="fill-rule:evenodd;clip-rule:evenodd;stroke-linejoin:round;stroke-miterlimit:2;">
    <rect id="ArtBoard1" x="0" y="0" width="64" height="64" style="fill:none;"/>
    <g id="ArtBoard11" serif:id="ArtBoard1">
        <path d="M22.89,23.711L22.889,23.711C22.847,23.707 22.637,23.685 22.591,23.681L22.586,23.68C22.574,23.679 22.563,23.678 22.551,23.678L20.149,23.585C20.131,23.585 20.113,23.585 20.095,23.586L18.335,23.71L17.66,23.743L15.258,24.077C15.237,24.079 15.217,24.084 15.197,24.089L12.794,24.74C12.767,24.747 12.74,24.757 12.714,24.77L10.311,25.898L10.521,26.839C10.521,26.839 10.258,25.927 10.258,25.927L9.854,26.182C9.854,26.182 7.867,27.362 7.867,27.362C7.843,27.376 7.82,27.393 7.799,27.411L6.344,28.65L5.376,29.573C5.365,29.583 5.355,29.594 5.345,29.605L4.052,31.085C4.036,31.103 4.021,31.123 4.008,31.144L2.898,32.885L2.479,33.548C2.467,33.566 2.457,33.584 2.448,33.603L1.33,36.006C1.317,36.034 1.306,36.063 1.299,36.093L0.692,38.495C0.686,38.518 0.682,38.541 0.679,38.565L0.428,40.967C0.427,40.986 0.426,41.005 0.426,41.025L0.455,43.427C0.456,43.446 0.457,43.466 0.46,43.486L0.779,45.888C0.783,45.913 0.788,45.938 0.795,45.962L1.502,48.365C1.512,48.397 1.524,48.428 1.54,48.457L2.82,50.859L3.256,51.121C3.256,51.121 2.849,50.907 2.849,50.907C2.849,50.907 2.897,50.978 2.905,50.99L2.914,51.002L2.909,50.996L4.513,53.311C4.527,53.33 4.542,53.349 4.558,53.366L5.356,54.223C5.367,54.235 5.379,54.247 5.392,54.258L7.176,55.819L7.813,56.323C7.83,56.336 7.848,56.348 7.867,56.36L10.269,57.788C10.296,57.804 10.325,57.818 10.355,57.828L11.652,58.294C11.652,58.294 12.73,58.752 12.73,58.752C12.754,58.762 12.778,58.771 12.803,58.777L15.205,59.382C15.231,59.388 15.257,59.393 15.283,59.395L17.685,59.603C17.709,59.605 17.733,59.606 17.757,59.604L20.159,59.465C20.184,59.463 20.209,59.46 20.234,59.455L22.636,58.94C22.661,58.934 22.687,58.927 22.711,58.917L24.305,58.299C24.305,58.299 25.088,58.044 25.088,58.044C25.113,58.036 25.137,58.026 25.161,58.014L27.563,56.777C27.585,56.766 27.607,56.752 27.628,56.737L28.887,55.818L30.046,54.896C30.06,54.886 30.072,54.875 30.085,54.863L31.595,53.382C31.61,53.367 31.625,53.352 31.638,53.335L32.531,52.202L33.519,50.93C33.536,50.908 33.551,50.885 33.564,50.861L34.854,48.459L34.853,48.459C34.865,48.436 34.876,48.412 34.886,48.385L35,48.069L35.947,46.031C35.957,46.009 35.966,45.987 35.973,45.964L36.691,43.562C36.696,43.546 36.7,43.53 36.703,43.514L37.168,41.086L37.431,39.168L37.536,38.74L38.164,36.444C38.164,36.444 39.611,34.645 39.611,34.645C39.611,34.645 41.777,34.33 41.777,34.33L44.151,34.41L46.553,34.416C46.571,34.416 46.589,34.415 46.607,34.413L47.626,34.304C47.626,34.304 48.986,34.222 48.986,34.222C49.003,34.221 49.02,34.219 49.036,34.216L51.438,33.823C51.464,33.818 51.489,33.812 51.514,33.804L53.916,33.009C53.948,32.999 53.98,32.984 54.009,32.967L55.937,31.845C55.937,31.845 56.383,31.623 56.383,31.623C56.414,31.608 56.444,31.589 56.471,31.567L58.873,29.65L58.873,29.65C58.89,29.637 58.907,29.621 58.924,29.604C58.957,29.57 59.162,29.36 59.162,29.36L59.162,29.36C59.175,29.347 59.188,29.333 59.2,29.318L61.142,26.916L61.141,26.916C61.162,26.891 61.181,26.862 61.199,26.829C61.226,26.777 61.397,26.456 61.397,26.456L60.967,26.707L61.398,26.455L62.527,24.445C62.545,24.414 62.559,24.38 62.569,24.346L63.293,21.943C63.302,21.914 63.308,21.884 63.311,21.854L63.571,19.452C63.574,19.428 63.575,19.403 63.574,19.379L63.476,16.977C63.475,16.949 63.472,16.922 63.466,16.896L62.966,14.494C62.959,14.457 62.947,14.422 62.932,14.388L61.827,11.986C61.816,11.962 61.803,11.939 61.789,11.918L61.375,11.299L60.156,9.512C60.14,9.488 60.123,9.467 60.103,9.446L58.92,8.225C58.903,8.208 58.884,8.191 58.865,8.176L57.305,6.987L56.451,6.373C56.428,6.357 56.403,6.342 56.378,6.33L53.976,5.169C53.941,5.152 53.905,5.14 53.868,5.131L51.466,4.596C51.441,4.59 51.416,4.586 51.39,4.585L49.951,4.493L49.006,4.398C48.972,4.394 48.938,4.394 48.904,4.398L47.999,4.494C47.999,4.494 46.52,4.595 46.52,4.595C46.495,4.597 46.47,4.601 46.445,4.606L44.043,5.153C44.007,5.161 43.973,5.172 43.941,5.188L41.538,6.326C41.516,6.336 41.495,6.349 41.474,6.363L40.545,6.989L39.057,8.073C39.04,8.086 39.024,8.099 39.009,8.113L37.611,9.431C37.592,9.448 37.575,9.467 37.559,9.487L36.557,10.78C36.557,10.78 35.678,11.885 35.678,11.885C35.659,11.909 35.642,11.935 35.628,11.962L34.361,14.364C34.347,14.39 34.335,14.418 34.326,14.446L34.082,15.221C34.082,15.221 33.342,16.785 33.342,16.785C33.332,16.806 33.324,16.827 33.317,16.849L32.566,19.251C32.563,19.261 32.56,19.27 32.558,19.28L31.962,21.674C31.962,21.674 31.7,22.599 31.7,22.599C31.7,22.599 30.554,23.793 30.554,23.793C30.554,23.793 29.637,24.211 29.637,24.211C29.637,24.211 27.37,24.162 27.37,24.162L24.977,23.893L22.89,23.711ZM60.344,26.331L58.447,28.679L58.233,28.897L55.896,30.762L55.454,30.983L53.557,32.088C53.557,32.088 51.24,32.854 51.24,32.854C51.24,32.854 48.901,33.237 48.901,33.237L47.532,33.321L46.529,33.428C46.529,33.428 44.161,33.422 44.161,33.422C44.161,33.422 41.767,33.341 41.767,33.341C41.737,33.34 41.708,33.342 41.679,33.346L39.276,33.696C39.153,33.714 39.041,33.778 38.963,33.875L37.33,35.905C37.288,35.957 37.256,36.018 37.238,36.084L36.581,38.486L37.058,39.11C37.058,39.11 36.578,38.499 36.578,38.499L36.468,38.948L36.945,39.569C36.803,39.569 36.667,39.508 36.573,39.4C36.479,39.292 36.437,39.15 36.456,39.008L36.192,40.938C36.191,40.938 35.738,43.303 35.738,43.303C35.738,43.303 35.037,45.647 35.037,45.647C35.037,45.647 34.095,47.672 34.095,47.672L34.543,48.374L34.075,47.722L33.967,48.023L32.713,50.357C32.713,50.357 31.752,51.595 31.752,51.595C31.752,51.595 30.882,52.699 30.882,52.699C30.882,52.699 29.412,54.139 29.412,54.139C29.411,54.139 28.281,55.039 28.281,55.039C28.281,55.039 27.077,55.917 27.077,55.917C27.077,55.917 24.744,57.117 24.744,57.117L23.961,57.373L22.39,57.982C22.39,57.982 20.064,58.481 20.064,58.481C20.064,58.481 17.735,58.616 17.735,58.616C17.735,58.616 15.408,58.414 15.408,58.414C15.408,58.414 13.081,57.828 13.081,57.828L11.999,57.369L10.733,56.915C10.733,56.915 8.4,55.527 8.4,55.527C8.4,55.527 7.798,55.052 7.798,55.052C7.798,55.052 6.061,53.532 6.061,53.532C6.061,53.532 5.305,52.719 5.305,52.719L3.722,50.435L3.679,50.372L2.436,48.037C2.436,48.037 1.753,45.72 1.753,45.72C1.753,45.72 1.443,43.385 1.443,43.385C1.443,43.385 1.414,41.041 1.414,41.041C1.414,41.041 1.658,38.703 1.658,38.703C1.658,38.703 2.245,36.38 2.245,36.38C2.245,36.38 3.33,34.049 3.33,34.049C3.33,34.049 3.732,33.415 3.732,33.415C3.732,33.415 4.821,31.707 4.821,31.707C4.821,31.707 6.074,30.272 6.074,30.272C6.074,30.272 7.016,29.375 7.016,29.375C7.016,29.375 8.407,28.19 8.407,28.19C8.407,28.19 10.361,27.03 10.361,27.03L10.359,27.03L10.381,27.017L10.759,26.779L13.094,25.682C13.094,25.682 15.425,25.051 15.425,25.051C15.425,25.051 17.773,24.724 17.773,24.724L18.398,24.696L20.138,24.573L22.492,24.664L22.846,24.697C22.832,24.697 22.817,24.696 22.803,24.695L24.886,24.876C24.885,24.876 27.282,25.146 27.282,25.146C27.296,25.148 27.311,25.149 27.326,25.149L29.728,25.201C29.802,25.203 29.876,25.188 29.944,25.157L31.05,24.653C31.107,24.627 31.158,24.59 31.201,24.545L32.497,23.195C32.553,23.136 32.594,23.065 32.616,22.988L32.919,21.92L33.513,19.532C33.513,19.532 34.25,17.177 34.25,17.177C34.25,17.177 34.99,15.613 34.99,15.613C34.999,15.592 35.008,15.571 35.014,15.55L35.255,14.785C35.255,14.785 36.48,12.464 36.48,12.464L37.336,11.388L38.316,10.123C38.316,10.123 39.664,8.853 39.664,8.853C39.664,8.853 41.119,7.792 41.119,7.792C41.119,7.792 41.995,7.203 41.995,7.203C41.995,7.203 44.314,6.104 44.314,6.104C44.314,6.104 46.626,5.578 46.626,5.578L48.094,5.477L48.958,5.385C48.957,5.385 49.86,5.477 49.86,5.477L51.289,5.568C51.289,5.568 53.597,6.083 53.597,6.083C53.597,6.083 55.91,7.201 55.91,7.201C55.91,7.201 56.723,7.785 56.723,7.785C56.723,7.785 58.236,8.939 58.236,8.939C58.236,8.939 59.364,10.103 59.364,10.103C59.364,10.103 60.558,11.854 60.558,11.854C60.558,11.854 60.946,12.434 60.946,12.434C60.946,12.434 62.011,14.75 62.011,14.75C62.011,14.75 62.491,17.057 62.491,17.057C62.491,17.057 62.585,19.382 62.585,19.382C62.585,19.382 62.334,21.702 62.334,21.702C62.334,21.702 61.639,24.009 61.639,24.009C61.639,24.009 60.537,25.971 60.537,25.971L60.967,26.707L60.526,25.991L60.344,26.331ZM3.796,50.603C3.822,50.716 3.808,50.837 3.752,50.944C3.667,51.106 3.499,51.208 3.315,51.208C3.315,51.208 3.869,50.974 3.796,50.603ZM2.926,51.019L2.928,51.021L2.926,51.019ZM3.738,50.46L3.741,50.465L3.738,50.46ZM37.292,39.427C37.144,39.57 36.945,39.569 36.945,39.569C37.079,39.569 37.202,39.516 37.292,39.427ZM37.305,39.414L37.297,39.422L37.305,39.414ZM37.36,39.344L37.354,39.353L37.36,39.344ZM37.427,39.185C37.412,39.243 37.391,39.293 37.366,39.334C37.394,39.289 37.415,39.239 37.427,39.185ZM22.892,23.711C23.52,23.779 22.846,24.697 22.846,24.697C23.11,24.697 23.328,24.489 23.339,24.225C23.351,23.962 23.154,23.736 22.892,23.711Z" style="fill:rgb(51,85,163);"/>
        <path d="M49.91,4.986L51.359,5.078L53.761,5.613L56.163,6.774L57.017,7.388L58.565,8.569L59.748,9.79L60.967,11.578L61.378,12.192L62.483,14.594L62.983,16.997L63.08,19.399L62.82,21.801L62.096,24.203L60.967,26.213L60.758,26.605L58.816,29.008L58.565,29.264L56.163,31.181L55.702,31.41L53.761,32.54L51.359,33.335L48.956,33.729L47.585,33.812L46.554,33.922L44.152,33.916L41.75,33.834L39.348,34.184L37.715,36.214L37.058,38.616L36.945,39.075L36.679,41.018L36.218,43.421L35.499,45.823L34.543,47.88L34.419,48.225L33.129,50.627L32.141,51.899L31.25,53.029L29.739,54.51L28.58,55.432L27.337,56.338L24.935,57.575L24.139,57.834L22.532,58.457L20.13,58.972L17.728,59.111L15.326,58.903L12.924,58.298L11.832,57.834L10.521,57.363L8.119,55.935L7.482,55.432L5.717,53.887L4.919,53.029L3.315,50.714L3.256,50.627L1.976,48.225L1.269,45.823L0.949,43.421L0.92,41.018L1.171,38.616L1.778,36.214L2.896,33.812L3.315,33.151L4.424,31.41L5.717,29.93L6.685,29.008L8.119,27.787L10.108,26.605L10.521,26.345L12.924,25.217L15.326,24.566L17.728,24.232L18.363,24.203L20.13,24.079L22.532,24.171L22.846,24.203L24.935,24.385L27.337,24.655L29.739,24.707L30.845,24.203L32.141,22.853L32.44,21.801L33.037,19.399L33.789,16.997L34.543,15.401L34.797,14.594L36.064,12.192L36.945,11.085L37.949,9.79L39.348,8.473L40.836,7.388L41.75,6.772L44.152,5.634L46.554,5.088L48.042,4.986L48.956,4.889L49.91,4.986Z" style="fill:rgb(0,191,206);fill-rule:nonzero;"/>
    </g>
</svg>
